<?xml version="1.0" encoding="utf-8"?>
<!-- Generator: Adobe Illustrator 21.0.0, SVG Export Plug-In . SVG Version: 6.00 Build 0)  -->
<svg version="1.1" id="Capa_1" xmlns="http://www.w3.org/2000/svg" xmlns:xlink="http://www.w3.org/1999/xlink" x="0px" y="0px"
	 viewBox="0 0 51 51" style="enable-background:new 0 0 51 51;" xml:space="preserve">
<style type="text/css">
	.st0{fill:#5B5B5F;}
	.st1{fill:#5B5B5F;stroke:#5B5B5F;stroke-width:2;stroke-miterlimit:10;}
</style>
<g>
	<g>
		<g>
			<path class="st0" d="M36.4,8.7C20.4-2.9-2.5,12,3.3,31.5c2.6,8.6,10.5,14.7,19.5,15.1c9.8,0.4,17.9-6,21.1-15
				c0.8-2.3-2.8-3.3-3.6-1c-5.7,16.2-29.7,16.2-33.6-1.3C3,13.1,21.7,2.7,34.5,11.9C36.4,13.3,38.3,10.1,36.4,8.7L36.4,8.7z"/>
		</g>
	</g>
	<path class="st1" d="M48.8,34.9c0-0.2,0-0.4-0.1-0.5l-5.8-7.7c-0.2-0.3-0.7-0.4-1-0.1l-7.8,5.7c-0.3,0.2-0.4,0.6-0.1,0.9
		c0.2,0.3,0.7,0.4,1,0.1l7.3-5.3l5.4,7.2c0.2,0.3,0.7,0.4,1,0.1C48.7,35.2,48.8,35.1,48.8,34.9z"/>
</g>
</svg>
